<?xml version="1.0" encoding="utf-8"?>
<!-- Generator: Adobe Illustrator 16.0.0, SVG Export Plug-In . SVG Version: 6.00 Build 0)  -->
<!DOCTYPE svg PUBLIC "-//W3C//DTD SVG 1.1//EN" "http://www.w3.org/Graphics/SVG/1.1/DTD/svg11.dtd">
<svg version="1.1" id="Layer_2" xmlns="http://www.w3.org/2000/svg" xmlns:xlink="http://www.w3.org/1999/xlink" x="0px" y="0px"
	 width="24.9px" height="24.9px" viewBox="0 0 24.9 24.9" style="enable-background:new 0 0 24.9 24.9;" xml:space="preserve">
<style type="text/css">
<![CDATA[
	.st0{fill:#917CB9;}
	.st1{fill:none;stroke:#917CB9;stroke-linecap:round;stroke-linejoin:round;stroke-miterlimit:10;}
]]>
</style>
<g>
	<path class="st0" d="M12.4,1c6.3,0,11.4,5.1,11.4,11.4c0,6.3-5.1,11.4-11.4,11.4S1,18.7,1,12.4C1,6.1,6.1,1,12.4,1 M12.4,0
		C5.6,0,0,5.6,0,12.4c0,6.9,5.6,12.4,12.4,12.4s12.4-5.6,12.4-12.4C24.9,5.6,19.3,0,12.4,0L12.4,0z"/>
</g>
<polyline class="st1" points="7.7,14.5 12.4,9.4 16.9,14.5 "/>
</svg>
